<svg width="40" height="40" viewBox="0 0 40 40" fill="none" xmlns="http://www.w3.org/2000/svg">
<path d="M25 2.5C26.6562 2.5 28 4.17891 28 6.25V26.25C28 28.3203 26.6562 30 25 30H16.6688L17.3312 32.5H22C23.1063 32.5 24 33.6172 24 35C24 36.3828 23.1063 37.5 22 37.5H6C4.89563 37.5 4 36.3828 4 35C4 33.6172 4.89563 32.5 6 32.5H10.6687L11.3313 30H3C1.34312 30 0 28.3203 0 26.25V6.25C0 4.17891 1.34312 2.5 3 2.5H25ZM4 7.5V25H24V7.5H4ZM37 2.5C38.6562 2.5 40 4.17891 40 6.25V33.75C40 35.8203 38.6562 37.5 37 37.5H33C31.3438 37.5 30 35.8203 30 33.75V6.25C30 4.17891 31.3438 2.5 33 2.5H37ZM34 7.5C33.45 7.5 33 8.0625 33 8.75C33 9.4375 33.45 10 34 10H36C36.55 10 37 9.4375 37 8.75C37 8.0625 36.55 7.5 36 7.5H34ZM34 15H36C36.55 15 37 14.4375 37 13.75C37 13.0625 36.55 12.5 36 12.5H34C33.45 12.5 33 13.0625 33 13.75C33 14.4375 33.45 15 34 15ZM35 31.25C36.1063 31.25 37 30.1328 37 28.75C37 27.3672 36.1063 26.25 35 26.25C33.8937 26.25 33 27.3672 33 28.75C33 30.1328 33.8937 31.25 35 31.25Z" fill="black"/>
</svg>
