<svg width="58" height="55" viewBox="0 0 58 55" fill="none" xmlns="http://www.w3.org/2000/svg">
<g filter="url(#filter0_d_11_65)">
<path d="M19.625 40.625H13.375C11.6494 40.625 10.25 39.2256 10.25 37.5V12.5C10.25 10.7744 11.6494 9.375 13.375 9.375H19.625C21.3506 9.375 22.75 7.97559 22.75 6.25C22.75 4.52441 21.3535 3.125 19.625 3.125H13.375C8.19727 3.125 4 7.32227 4 12.5V37.5C4 42.6777 8.19727 46.875 13.375 46.875H19.625C21.3506 46.875 22.75 45.4756 22.75 43.75C22.75 42.0244 21.3535 40.625 19.625 40.625ZM53.082 22.793L40.582 10.293C39.3604 9.07129 37.3828 9.07324 36.1631 10.293C34.9424 11.5137 34.9424 13.4912 36.1631 14.7119L43.3359 21.875H22.75C21.0215 21.875 19.625 23.2715 19.625 25C19.625 26.7285 21.0225 28.125 22.75 28.125H43.3359L36.1699 35.291C34.9492 36.5117 34.9492 38.4893 36.1699 39.71C37.3906 40.9307 39.3682 40.9307 40.5889 39.71L53.0889 27.21C54.3027 25.9863 54.3027 24.0137 53.082 22.793Z" fill="white"/>
</g>
<defs>
<filter id="filter0_d_11_65" x="0" y="0" width="58" height="58" filterUnits="userSpaceOnUse" color-interpolation-filters="sRGB">
<feFlood flood-opacity="0" result="BackgroundImageFix"/>
<feColorMatrix in="SourceAlpha" type="matrix" values="0 0 0 0 0 0 0 0 0 0 0 0 0 0 0 0 0 0 127 0" result="hardAlpha"/>
<feOffset dy="4"/>
<feGaussianBlur stdDeviation="2"/>
<feComposite in2="hardAlpha" operator="out"/>
<feColorMatrix type="matrix" values="0 0 0 0 0 0 0 0 0 0 0 0 0 0 0 0 0 0 0.25 0"/>
<feBlend mode="normal" in2="BackgroundImageFix" result="effect1_dropShadow_11_65"/>
<feBlend mode="normal" in="SourceGraphic" in2="effect1_dropShadow_11_65" result="shape"/>
</filter>
</defs>
</svg>
