<svg width="40" height="40" viewBox="0 0 40 40" fill="none" xmlns="http://www.w3.org/2000/svg">
<path d="M25.926 3.18716L17.9257 38.1861C17.6194 39.5142 16.5131 40.2798 15.4506 39.9048C14.3881 39.522 13.7755 38.1393 14.0756 36.8112L22.0759 1.8138C22.3821 0.48621 23.4884 -0.282501 24.551 0.0968548C25.6135 0.476132 26.226 1.85989 25.926 3.18716ZM32.4138 9.48449L39.414 18.234C40.1953 19.2106 40.1953 20.7886 39.414 21.7651L32.4138 30.5147C31.6325 31.4912 30.3699 31.4912 29.5887 30.5147C28.8074 29.5381 28.8074 27.9601 29.5887 26.9836L35.1701 19.9996L29.5887 13.0156C28.8074 12.0391 28.8074 10.461 29.5887 9.48449C30.3699 8.50798 31.6325 8.50798 32.4138 9.48449ZM10.4129 13.0156L4.82831 19.9996L10.4129 26.9836C11.1942 27.9601 11.1942 29.5381 10.4129 30.5147C9.63163 31.4912 8.36908 31.4912 7.5878 30.5147L0.585773 21.7651C-0.195258 20.7886 -0.195258 19.2106 0.585773 18.234L7.5878 9.48449C8.36908 8.50798 9.63163 8.50798 10.4129 9.48449C11.1942 10.461 11.1942 12.0391 10.4129 13.0156Z" fill="black"/>
</svg>
