<svg width="58" height="65" viewBox="0 0 58 65" fill="none" xmlns="http://www.w3.org/2000/svg">
<g filter="url(#filter0_d_11_63)">
<path d="M29 0.0419922C15.1914 0.0419922 4 12.5777 4 28.0449C4 43.5122 15.1914 56.0479 29 56.0479C42.8086 56.0479 54 43.5122 54 28.0449C54 12.5777 42.8086 0.0419922 29 0.0419922ZM29 14.0435C32.8838 14.0435 36.0312 17.5701 36.0312 21.9193C36.0312 26.2685 32.8867 29.7951 29 29.7951C25.1172 29.7951 21.9688 26.2685 21.9688 21.9193C21.9688 17.5701 25.1133 14.0435 29 14.0435ZM29 49.0471C23.8311 49.0471 19.1465 46.692 15.748 42.8898C17.3301 38.3163 21.2363 35.0457 25.875 35.0457H32.125C36.7676 35.0457 40.6738 38.3141 42.252 42.8898C38.8535 46.6953 34.166 49.0471 29 49.0471Z" fill="white"/>
</g>
<defs>
<filter id="filter0_d_11_63" x="0" y="0.0419922" width="58" height="64.0059" filterUnits="userSpaceOnUse" color-interpolation-filters="sRGB">
<feFlood flood-opacity="0" result="BackgroundImageFix"/>
<feColorMatrix in="SourceAlpha" type="matrix" values="0 0 0 0 0 0 0 0 0 0 0 0 0 0 0 0 0 0 127 0" result="hardAlpha"/>
<feOffset dy="4"/>
<feGaussianBlur stdDeviation="2"/>
<feComposite in2="hardAlpha" operator="out"/>
<feColorMatrix type="matrix" values="0 0 0 0 0 0 0 0 0 0 0 0 0 0 0 0 0 0 0.25 0"/>
<feBlend mode="normal" in2="BackgroundImageFix" result="effect1_dropShadow_11_63"/>
<feBlend mode="normal" in="SourceGraphic" in2="effect1_dropShadow_11_63" result="shape"/>
</filter>
</defs>
</svg>
