<svg width="40" height="36" viewBox="0 0 40 36" fill="none" xmlns="http://www.w3.org/2000/svg">
<path d="M19.9437 25.4297C17.7344 25.4297 15.9437 27.6688 15.9437 30.4305C15.9437 33.1922 17.735 35.4313 19.9437 35.4313C22.1525 35.4313 23.9437 33.1922 23.9437 30.4305C23.9437 27.6688 22.2062 25.4297 19.9437 25.4297ZM20 12.9297C15.6094 12.9297 11.3813 14.9297 8.09375 18.557C7.26875 19.5391 7.1875 21.1172 7.91875 22.1563C8.65625 23.1875 9.91875 23.2891 10.7438 22.375C13.3 19.5547 16.5875 18 20 18C23.4125 18 26.7062 19.5531 29.2562 22.375C29.6375 22.7969 30.1125 23 30.5812 23C31.134 23 31.685 22.7144 32.0812 22.1555C32.8125 21.1172 32.7375 19.5391 31.9062 18.625C28.6187 15 24.3937 12.9297 20 12.9297ZM39.3875 10.2422C34.1437 3.95938 27.2625 0.5 20 0.5C12.7375 0.5 5.85563 3.95938 0.615259 10.2422C-0.181615 11.1992 -0.20724 12.7813 0.556666 13.7773C1.32042 14.7758 2.58604 14.8023 3.38479 13.8506C7.81875 8.39844 13.775 5.5 20 5.5C26.225 5.5 32.0687 8.46641 36.6125 13.8516C37.0062 14.3125 37.5 14.5469 38 14.5469C38.5254 14.5469 39.0506 14.2905 39.4431 13.7778C40.2062 12.7813 40.1812 11.1328 39.3875 10.2422Z" fill="black"/>
</svg>
